<svg width="48" height="48" viewBox="0 0 48 48" fill="none" xmlns="http://www.w3.org/2000/svg">
  <!-- Placeholder: Ersetzen Sie dieses Icon mit Ihrem eigenen Design -->
  <rect width="48" height="48" rx="8" fill="#4B5563"/>
  <path d="M18 34c-1.657 0-3-1.343-3-3s1.343-3 3-3 3 1.343 3 3-1.343 3-3 3zm0-4c-.551 0-1 .449-1 1s.449 1 1 1 1-.449 1-1-.449-1-1-1z" fill="white"/>
  <path d="M30 31c-1.657 0-3-1.343-3-3s1.343-3 3-3 3 1.343 3 3-1.343 3-3 3zm0-4c-.551 0-1 .449-1 1s.449 1 1 1 1-.449 1-1-.449-1-1-1z" fill="white"/>
  <path d="M21 31V15l12-3v16m-12-3l12-3" stroke="white" stroke-width="2" stroke-linecap="round" stroke-linejoin="round"/>
</svg>

